# xmcd
#
# Track frame offsets:
#	150
#	17032
#	32610
#	46349
#	62784
#	79585
#	95638
#	113098
#	130200
#	146099
#	159657
#	173155
#	186983
#	201069
#	218186
#	233810
#	248213
#
# Disc length: 3600 seconds
#
# Revision: 1
# Processed by: cddbd v1.5.2PL0 Copyright (c) Steve Scherf et al.
# Submitted via: audiograbber 1.83.01
#
DISCID=ed0e0e11
DTITLE=Various Artist - CMAA Winners 2015 [Disc 1]
DYEAR=2015
DGENRE=Country
TTITLE0=The McClymonts - Here's To You and I
TTITLE1=McAlister Kemp - Fight Me
TTITLE2=The Wolfe Brothers - That Kinda Night
TTITLE3=Adam Brand - What Your Love Looks Like
TTITLE4=Morgan Evans - Like A Tornado
TTITLE5=Adam Eckersley Band - Give Her The World
TTITLE6=Kasey Chambers - Wheelbarrow
TTITLE7=Jenny Queen - Blood Meridian
TTITLE8=Amber Lawrence - Superhero
TTITLE9=Jared Porter - Deep End
TTITLE10=Christie Lamb - Wish You Were A Cowboy
TTITLE11=Harmony James - Skinny Flat White
TTITLE12=Lyn Bowtell - Heart Of Sorrow
TTITLE13=Jasmine Rae - Just Don't Ask Me How I Am
TTITLE14=Adam Harvey - Family Life
TTITLE15=Sara Storer - Canoe
TTITLE16=Luke O'Shea - Three Brothers (The Great War)
EXTD=
EXTT0=
EXTT1=
EXTT2=
EXTT3=
EXTT4=
EXTT5=
EXTT6=
EXTT7=
EXTT8=
EXTT9=
EXTT10=
EXTT11=
EXTT12=
EXTT13=
EXTT14=
EXTT15=
EXTT16=
PLAYORDER=
